<svg width="16" height="16" viewBox="0 0 16 16" fill="none" xmlns="http://www.w3.org/2000/svg">
<g id="Theme-Icon">
<path id="Vector" d="M7.69501 1.63521C7.81781 1.47309 7.83016 1.25274 7.72626 1.0779C7.62237 0.903065 7.42292 0.80858 7.22182 0.838929C3.97514 1.3289 1.5 4.19204 1.5 7.63259C1.5 11.4133 4.49133 14.5 8.20787 14.5C11.0684 14.5 13.5011 12.6692 14.4679 10.1047C14.54 9.91344 14.4884 9.69752 14.3376 9.5595C14.1868 9.42148 13.9671 9.38917 13.783 9.4779C13.1377 9.78881 12.4175 9.96255 11.6567 9.96255C8.89715 9.96255 6.63858 7.66441 6.63858 4.80264C6.63858 3.607 7.03345 2.5087 7.69501 1.63521Z" fill="#100F1B" fill-opacity="0.25"/>
</g>
</svg>
