<svg width="16" height="16" viewBox="0 0 16 16" fill="none" xmlns="http://www.w3.org/2000/svg">
<g id="Theme-Icon">
<path id="Vector" fill-rule="evenodd" clip-rule="evenodd" d="M8.74998 1.33334C8.74998 0.91913 8.41419 0.583344 7.99998 0.583344C7.58577 0.583344 7.24998 0.91913 7.24998 1.33334L7.24998 2.66668C7.24998 3.08089 7.58577 3.41668 7.99998 3.41668C8.4142 3.41668 8.74998 3.08089 8.74998 2.66668V1.33334ZM3.53031 2.46934C3.23742 2.17645 2.76255 2.17644 2.46965 2.46934C2.17676 2.76223 2.17675 3.2371 2.46965 3.53L3.46966 4.53003C3.76255 4.82292 4.23743 4.82293 4.53032 4.53003C4.82322 4.23714 4.82322 3.76227 4.53033 3.46937L3.53031 2.46934ZM13.5303 3.53034C13.8232 3.23745 13.8232 2.76257 13.5303 2.46968C13.2374 2.17679 12.7625 2.17679 12.4696 2.46968L11.4696 3.46968C11.1768 3.76257 11.1768 4.23745 11.4696 4.53034C11.7625 4.82323 12.2374 4.82323 12.5303 4.53034L13.5303 3.53034ZM1.33331 7.25001C0.919099 7.25001 0.583313 7.5858 0.583313 8.00001C0.583313 8.41422 0.919099 8.75001 1.33331 8.75001H2.66664C3.08086 8.75001 3.41664 8.41422 3.41664 8.00001C3.41664 7.5858 3.08086 7.25001 2.66664 7.25001H1.33331ZM13.3333 7.25001C12.9191 7.25001 12.5833 7.5858 12.5833 8.00001C12.5833 8.41422 12.9191 8.75001 13.3333 8.75001H14.6666C15.0809 8.75001 15.4166 8.41422 15.4166 8.00001C15.4166 7.5858 15.0809 7.25001 14.6666 7.25001H13.3333ZM12.5303 11.4694C12.2374 11.1765 11.7625 11.1765 11.4696 11.4694C11.1768 11.7622 11.1768 12.2371 11.4696 12.53L12.4696 13.53C12.7625 13.8229 13.2374 13.8229 13.5303 13.53C13.8232 13.2371 13.8232 12.7622 13.5303 12.4694L12.5303 11.4694ZM4.53031 12.5303C4.8232 12.2374 4.8232 11.7626 4.53031 11.4697C4.23742 11.1768 3.76254 11.1768 3.46965 11.4697L2.46965 12.4697C2.17676 12.7626 2.17676 13.2374 2.46965 13.5303C2.76254 13.8232 3.23742 13.8232 3.53031 13.5303L4.53031 12.5303ZM8.74998 13.3333C8.74998 12.9191 8.4142 12.5833 7.99998 12.5833C7.58577 12.5833 7.24998 12.9191 7.24998 13.3333L7.24998 14.6667C7.24998 15.0809 7.58577 15.4167 7.99998 15.4167C8.41419 15.4167 8.74998 15.0809 8.74998 14.6667L8.74998 13.3333ZM4.16665 8.00001C4.16665 5.88292 5.88289 4.16668 7.99998 4.16668C10.1171 4.16668 11.8333 5.88292 11.8333 8.00001C11.8333 10.1171 10.1171 11.8333 7.99998 11.8333C5.88289 11.8333 4.16665 10.1171 4.16665 8.00001Z" fill="#100F1B" fill-opacity="0.45"/>
</g>
</svg>
